<svg xmlns="http://www.w3.org/2000/svg" width="512" height="512" viewBox="0 0 512 512">
  <!-- 背景 -->
  <rect width="512" height="512" rx="80" fill="#1a1a2e"/>
  <!-- 心脏（康复主题） -->
  <path d="M256 380 C256 380 120 280 80 220 C40 160 40 100 90 70 C140 40 200 50 256 120 C312 50 372 40 422 70 C472 100 472 160 432 220 C392 280 256 380 256 380Z"
        fill="#7C5CFC" opacity="0.9"/>
  <!-- 心脏内十字 -->
  <rect x="220" y="160" width="72" height="18" rx="9" fill="#FFFFFF" opacity="0.8"/>
  <rect x="247" y="133" width="18" height="72" rx="9" fill="#FFFFFF" opacity="0.8"/>
  <!-- 星星装饰 -->
  <circle cx="130" cy="120" r="6" fill="#FFE66D" opacity="0.6"/>
  <circle cx="380" cy="100" r="5" fill="#FFE66D" opacity="0.5"/>
  <circle cx="350" cy="360" r="4" fill="#FFE66D" opacity="0.5"/>
</svg>
